<?xml version="1.0" encoding="UTF-8"?>
<svg xmlns="http://www.w3.org/2000/svg" viewBox="0 0 96.77 17.3">
  <defs>
    <style>
      .cls-1 {
        fill: #FFFFFF;
        stroke-width: 0px;
        color: #FFFFFF
      }
    </style>
  </defs>
    <g>
      <path class="cls-1" d="m10.5,2.09c.53.59.94,1.3,1.23,2.15s.43,1.81.43,2.89-.15,2.04-.44,2.9-.7,1.56-1.22,2.13c-.54.59-1.18,1.04-1.91,1.34s-1.57.45-2.52.45-1.76-.15-2.51-.46-1.39-.75-1.92-1.33-.93-1.29-1.22-2.14-.43-1.81-.43-2.89.14-2.02.42-2.87.69-1.57,1.23-2.18c.52-.57,1.16-1.01,1.92-1.32s1.6-.46,2.5-.46,1.78.15,2.53.46,1.38.75,1.9,1.31Zm-.16,5.04c0-1.7-.38-3.01-1.14-3.93s-1.8-1.38-3.12-1.38-2.37.46-3.13,1.38-1.14,2.23-1.14,3.93.39,3.03,1.16,3.94,1.81,1.37,3.11,1.37,2.34-.46,3.11-1.37,1.16-2.23,1.16-3.94Z"/>
      <path class="cls-1" d="m21.89,13.68h-1.65v-5.59c0-.45-.03-.87-.08-1.27s-.15-.7-.29-.93c-.15-.25-.36-.43-.63-.55s-.63-.18-1.07-.18-.92.11-1.42.33-.96.51-1.42.85v7.33h-1.65V3.86h1.65v1.09c.52-.43,1.05-.76,1.6-1s1.12-.36,1.7-.36c1.06,0,1.87.32,2.43.96s.83,1.56.83,2.76v6.37Z"/>
      <path class="cls-1" d="m25.65,13.68h-1.65V0h1.65v13.68Z"/>
      <path class="cls-1" d="m29.59,2.21h-1.86V.5h1.86v1.71Zm-.11,11.46h-1.65V3.86h1.65v9.82Z"/>
      <path class="cls-1" d="m39.87,13.68h-1.65v-5.59c0-.45-.03-.87-.08-1.27s-.15-.7-.29-.93c-.15-.25-.36-.43-.63-.55s-.63-.18-1.07-.18-.92.11-1.42.33-.96.51-1.42.85v7.33h-1.65V3.86h1.65v1.09c.52-.43,1.05-.76,1.6-1s1.12-.36,1.7-.36c1.06,0,1.87.32,2.43.96s.83,1.56.83,2.76v6.37Z"/>
      <path class="cls-1" d="m50.17,8.94h-7.23c0,.6.09,1.13.27,1.58s.43.82.75,1.1c.3.28.67.49,1.09.63s.88.21,1.38.21c.67,0,1.34-.13,2.02-.4s1.16-.53,1.45-.79h.09v1.8c-.56.23-1.12.43-1.71.59s-1.19.24-1.83.24c-1.63,0-2.9-.44-3.81-1.32s-1.37-2.13-1.37-3.76.44-2.88,1.31-3.82,2.03-1.42,3.46-1.42c1.32,0,2.35.39,3.06,1.16s1.08,1.87,1.08,3.3v.9Zm-1.61-1.27c0-.87-.22-1.54-.65-2.01s-1.09-.71-1.96-.71-1.59.26-2.11.78-.82,1.17-.89,1.94h5.62Z"/>
      <path class="cls-1" d="m66.45,9.94c0,.51-.12,1.01-.36,1.51s-.57.92-1,1.27c-.47.38-1.02.67-1.64.88s-1.38.32-2.25.32c-.94,0-1.79-.09-2.54-.26s-1.52-.44-2.3-.78v-2.18h.12c.66.55,1.43.98,2.29,1.27s1.68.45,2.44.45c1.08,0,1.92-.2,2.52-.61s.9-.94.9-1.62c0-.58-.14-1.01-.43-1.28s-.72-.49-1.3-.64c-.44-.12-.92-.21-1.43-.29s-1.06-.17-1.63-.29c-1.16-.25-2.02-.67-2.58-1.26s-.84-1.37-.84-2.32c0-1.1.46-1.99,1.39-2.69s2.1-1.05,3.52-1.05c.92,0,1.76.09,2.53.26s1.45.39,2.04.65v2.06h-.12c-.5-.42-1.15-.77-1.96-1.05s-1.64-.42-2.49-.42c-.93,0-1.68.19-2.25.58s-.85.88-.85,1.49c0,.54.14.97.42,1.28s.78.55,1.49.71c.38.08.91.18,1.6.3s1.28.24,1.76.36c.97.26,1.71.65,2.2,1.17s.74,1.25.74,2.19Z"/>
      <path class="cls-1" d="m76.22,13.68h-1.65v-5.59c0-.45-.03-.87-.08-1.27s-.15-.7-.29-.93c-.15-.25-.36-.43-.63-.55s-.63-.18-1.07-.18-.92.11-1.42.33-.96.51-1.42.85v7.33h-1.65V0h1.65v4.95c.52-.43,1.05-.76,1.6-1s1.12-.36,1.7-.36c1.06,0,1.87.32,2.43.96s.83,1.56.83,2.76v6.37Z"/>
      <path class="cls-1" d="m86.67,8.77c0,1.6-.41,2.86-1.23,3.79s-1.92,1.39-3.3,1.39-2.49-.46-3.31-1.39-1.23-2.19-1.23-3.79.41-2.86,1.23-3.79,1.92-1.39,3.31-1.39,2.48.46,3.3,1.39,1.23,2.19,1.23,3.79Zm-1.71,0c0-1.27-.25-2.22-.75-2.83s-1.19-.93-2.07-.93-1.59.31-2.09.93-.74,1.56-.74,2.83.25,2.16.75,2.8,1.19.95,2.08.95,1.57-.31,2.07-.94.75-1.57.75-2.81Z"/>
      <path class="cls-1" d="m96.77,8.65c0,.8-.11,1.52-.34,2.18s-.55,1.22-.97,1.67c-.39.43-.84.77-1.37,1.01s-1.08.36-1.67.36c-.51,0-.97-.06-1.38-.17s-.83-.28-1.26-.52v4.11h-1.65V3.86h1.65v1.03c.44-.37.93-.68,1.48-.93s1.13-.37,1.75-.37c1.18,0,2.1.45,2.76,1.34s.99,2.13.99,3.72Zm-1.71.04c0-1.18-.2-2.07-.61-2.65s-1.03-.88-1.86-.88c-.47,0-.95.1-1.43.31s-.94.47-1.38.81v5.56c.47.21.87.35,1.21.43s.72.11,1.15.11c.92,0,1.64-.31,2.15-.93s.77-1.54.77-2.76Z"/>
    </g>
</svg>